<mxfile host="app.diagrams.net" agent="Mozilla/5.0 (Macintosh; Intel Mac OS X 10_15_7) AppleWebKit/537.36 (KHTML, like Gecko) Chrome/129.0.0.0 Safari/537.36" version="24.8.4" pages="2">
  <diagram name="Page-1" id="rYBfnsot-jBouOp0oWOX">
    <mxGraphModel dx="1308" dy="513" grid="0" gridSize="10" guides="1" tooltips="1" connect="1" arrows="1" fold="1" page="0" pageScale="1" pageWidth="850" pageHeight="1100" math="0" shadow="0">
      <root>
        <mxCell id="0" />
        <mxCell id="1" parent="0" />
        <mxCell id="24srNllwxqy0EDmJNm3B-5" value="" style="edgeStyle=none;curved=1;rounded=0;orthogonalLoop=1;jettySize=auto;html=1;fontSize=12;startSize=8;endSize=8;" edge="1" parent="1" source="24srNllwxqy0EDmJNm3B-1" target="24srNllwxqy0EDmJNm3B-4">
          <mxGeometry relative="1" as="geometry" />
        </mxCell>
        <mxCell id="24srNllwxqy0EDmJNm3B-1" value="Start" style="whiteSpace=wrap;html=1;" vertex="1" parent="1">
          <mxGeometry x="139" y="67" width="120" height="60" as="geometry" />
        </mxCell>
        <mxCell id="24srNllwxqy0EDmJNm3B-2" value="Can&#39;t ride" style="whiteSpace=wrap;html=1;" vertex="1" parent="1">
          <mxGeometry x="-3" y="215" width="120" height="60" as="geometry" />
        </mxCell>
        <mxCell id="24srNllwxqy0EDmJNm3B-15" value="" style="edgeStyle=none;curved=1;rounded=0;orthogonalLoop=1;jettySize=auto;html=1;fontSize=12;startSize=8;endSize=8;" edge="1" parent="1" source="24srNllwxqy0EDmJNm3B-3" target="24srNllwxqy0EDmJNm3B-4">
          <mxGeometry relative="1" as="geometry" />
        </mxCell>
        <mxCell id="24srNllwxqy0EDmJNm3B-3" value="Can ride" style="whiteSpace=wrap;html=1;" vertex="1" parent="1">
          <mxGeometry x="275" y="215" width="120" height="60" as="geometry" />
        </mxCell>
        <mxCell id="24srNllwxqy0EDmJNm3B-7" value="" style="edgeStyle=none;curved=1;rounded=0;orthogonalLoop=1;jettySize=auto;html=1;fontSize=12;startSize=8;endSize=8;" edge="1" parent="1" source="24srNllwxqy0EDmJNm3B-4" target="24srNllwxqy0EDmJNm3B-2">
          <mxGeometry relative="1" as="geometry" />
        </mxCell>
        <mxCell id="24srNllwxqy0EDmJNm3B-4" value="Height &amp;gt; 120cm?" style="whiteSpace=wrap;html=1;" vertex="1" parent="1">
          <mxGeometry x="141" y="152" width="118" height="60" as="geometry" />
        </mxCell>
        <mxCell id="24srNllwxqy0EDmJNm3B-10" value="No" style="text;html=1;align=center;verticalAlign=middle;resizable=0;points=[];autosize=1;strokeColor=none;fillColor=none;fontSize=16;" vertex="1" parent="1">
          <mxGeometry x="62.5" y="170.5" width="38" height="31" as="geometry" />
        </mxCell>
        <mxCell id="24srNllwxqy0EDmJNm3B-11" value="Yes" style="text;html=1;align=center;verticalAlign=middle;resizable=0;points=[];autosize=1;strokeColor=none;fillColor=none;fontSize=16;" vertex="1" parent="1">
          <mxGeometry x="285" y="166.5" width="44" height="31" as="geometry" />
        </mxCell>
        <mxCell id="24srNllwxqy0EDmJNm3B-14" value="" style="edgeStyle=none;orthogonalLoop=1;jettySize=auto;html=1;rounded=0;fontSize=12;startSize=8;endSize=8;curved=1;exitX=1;exitY=1;exitDx=0;exitDy=0;" edge="1" parent="1" source="24srNllwxqy0EDmJNm3B-4" target="24srNllwxqy0EDmJNm3B-3">
          <mxGeometry width="120" relative="1" as="geometry">
            <mxPoint x="252" y="200" as="sourcePoint" />
            <mxPoint x="311" y="200" as="targetPoint" />
            <Array as="points" />
          </mxGeometry>
        </mxCell>
        <mxCell id="24srNllwxqy0EDmJNm3B-16" value="$7" style="whiteSpace=wrap;html=1;" vertex="1" parent="1">
          <mxGeometry x="143" y="376" width="120" height="60" as="geometry" />
        </mxCell>
        <mxCell id="24srNllwxqy0EDmJNm3B-17" value="$12" style="whiteSpace=wrap;html=1;" vertex="1" parent="1">
          <mxGeometry x="424" y="367" width="120" height="60" as="geometry" />
        </mxCell>
        <mxCell id="24srNllwxqy0EDmJNm3B-19" value="" style="edgeStyle=none;curved=1;rounded=0;orthogonalLoop=1;jettySize=auto;html=1;fontSize=12;startSize=8;endSize=8;entryX=0.5;entryY=1;entryDx=0;entryDy=0;" edge="1" parent="1" source="24srNllwxqy0EDmJNm3B-18" target="24srNllwxqy0EDmJNm3B-3">
          <mxGeometry relative="1" as="geometry" />
        </mxCell>
        <mxCell id="24srNllwxqy0EDmJNm3B-20" style="edgeStyle=none;curved=1;rounded=0;orthogonalLoop=1;jettySize=auto;html=1;entryX=1;entryY=0;entryDx=0;entryDy=0;fontSize=12;startSize=8;endSize=8;" edge="1" parent="1" source="24srNllwxqy0EDmJNm3B-18" target="24srNllwxqy0EDmJNm3B-16">
          <mxGeometry relative="1" as="geometry" />
        </mxCell>
        <mxCell id="24srNllwxqy0EDmJNm3B-21" style="edgeStyle=none;curved=1;rounded=0;orthogonalLoop=1;jettySize=auto;html=1;fontSize=12;startSize=8;endSize=8;" edge="1" parent="1" source="24srNllwxqy0EDmJNm3B-18" target="24srNllwxqy0EDmJNm3B-17">
          <mxGeometry relative="1" as="geometry" />
        </mxCell>
        <mxCell id="24srNllwxqy0EDmJNm3B-18" value="age" style="whiteSpace=wrap;html=1;" vertex="1" parent="1">
          <mxGeometry x="276" y="302" width="118" height="61" as="geometry" />
        </mxCell>
        <mxCell id="24srNllwxqy0EDmJNm3B-22" value="18 and under" style="text;html=1;align=center;verticalAlign=middle;resizable=0;points=[];autosize=1;strokeColor=none;fillColor=none;fontSize=16;" vertex="1" parent="1">
          <mxGeometry x="139.5" y="347.5" width="112" height="31" as="geometry" />
        </mxCell>
        <mxCell id="24srNllwxqy0EDmJNm3B-23" value="Over 18" style="text;html=1;align=center;verticalAlign=middle;resizable=0;points=[];autosize=1;strokeColor=none;fillColor=none;fontSize=16;" vertex="1" parent="1">
          <mxGeometry x="442" y="340" width="75" height="31" as="geometry" />
        </mxCell>
      </root>
    </mxGraphModel>
  </diagram>
  <diagram id="6y-WuwEWJvU8TF-XG3B9" name="Page-2">
    <mxGraphModel dx="908" dy="290" grid="0" gridSize="10" guides="1" tooltips="1" connect="1" arrows="1" fold="1" page="0" pageScale="1" pageWidth="850" pageHeight="1100" math="0" shadow="0">
      <root>
        <mxCell id="0" />
        <mxCell id="1" parent="0" />
      </root>
    </mxGraphModel>
  </diagram>
</mxfile>
